<?xml version="1.0" standalone="no"?>
<!DOCTYPE svg PUBLIC "-//W3C//DTD SVG 20010904//EN"
 "http://www.w3.org/TR/2001/REC-SVG-20010904/DTD/svg10.dtd">
<svg version="1.0" xmlns="http://www.w3.org/2000/svg"
 width="2144.000000pt" height="2144.000000pt" viewBox="0 0 2144.000000 2144.000000"
 preserveAspectRatio="xMidYMid meet">
<metadata>
Created by potrace 1.14, written by Peter Selinger 2001-2017
</metadata>
<g transform="translate(0.000000,2144.000000) scale(0.100000,-0.100000)"
fill="#000000" stroke="none">
<path d="M7895 15432 c-6 -5 -50 -26 -100 -47 -49 -21 -115 -50 -145 -63 -30
-14 -57 -26 -60 -27 -23 -5 -80 -30 -80 -35 0 -4 -6 -7 -12 -7 -7 0 -56 -19
-108 -42 -52 -24 -99 -44 -105 -45 -5 -2 -37 -15 -70 -31 -69 -31 -98 -43
-105 -42 -3 1 -23 -8 -45 -20 -22 -12 -137 -63 -255 -113 -118 -51 -233 -100
-255 -110 -76 -33 -110 -48 -165 -71 -30 -12 -59 -26 -65 -31 -5 -4 -17 -8
-27 -8 -10 0 -18 -5 -18 -10 0 -6 -3 -9 -7 -8 -7 1 -35 -8 -83 -29 -8 -3 -17
-7 -20 -8 -3 -1 -36 -16 -73 -33 -38 -18 -75 -32 -83 -32 -8 0 -14 -4 -14 -10
0 -5 -7 -10 -16 -10 -9 0 -43 -13 -77 -28 -34 -16 -102 -46 -152 -67 -49 -21
-97 -43 -105 -49 -14 -10 -16 -75 -16 -533 0 -288 4 -523 9 -523 7 0 277 113
382 160 106 48 156 70 159 70 2 0 25 10 52 22 27 12 51 23 54 23 3 1 16 7 30
13 117 54 230 99 234 94 3 -3 6 0 6 6 0 7 4 12 9 12 5 0 24 6 42 14 19 8 39
15 44 16 6 1 16 6 23 12 6 6 12 7 12 2 0 -5 4 -4 8 2 4 6 34 21 67 35 33 13
62 26 65 29 3 3 10 6 17 7 6 1 41 16 77 33 37 16 69 30 71 30 2 0 29 11 59 25
49 23 103 46 116 50 8 3 41 17 195 84 28 12 58 26 67 31 9 5 19 6 21 2 2 -4 3
-176 3 -382 -1 -206 0 -381 2 -388 3 -8 8 -9 16 -3 6 5 47 23 91 41 44 18 108
45 143 61 34 16 64 29 66 29 3 0 34 14 69 30 36 17 68 30 71 30 3 0 29 11 58
24 88 40 542 237 553 240 6 1 26 9 45 18 70 33 156 70 200 88 25 10 119 50
210 90 210 91 212 92 293 128 37 17 67 28 67 25 0 -3 6 -1 13 5 6 5 93 44 192
87 99 42 184 81 189 85 9 9 13 1046 5 1055 -3 2 -17 -2 -31 -9 -15 -8 -29 -12
-32 -8 -3 3 -6 0 -6 -6 0 -7 -5 -12 -11 -12 -6 0 -68 -25 -137 -56 -70 -31
-131 -57 -137 -58 -10 -3 -48 -19 -132 -57 -24 -10 -64 -28 -90 -40 -27 -11
-57 -24 -68 -29 -71 -31 -114 -50 -118 -50 -3 0 -31 -12 -63 -27 -33 -15 -61
-28 -64 -29 -6 -1 -71 -29 -115 -49 -123 -56 -215 -92 -219 -87 -3 3 -6 0 -6
-6 0 -7 -5 -12 -11 -12 -5 0 -35 -11 -65 -25 -30 -14 -57 -25 -59 -25 -2 0
-29 -11 -60 -25 -30 -14 -80 -36 -110 -50 -31 -14 -58 -25 -60 -25 -2 0 -28
-11 -57 -24 -29 -13 -74 -32 -100 -42 -27 -10 -48 -23 -48 -27 0 -5 -4 -6 -9
-3 -5 3 -9 177 -9 387 0 215 -4 385 -9 390 -5 5 -13 5 -18 1z"/>
<path d="M18939 12906 c-2 -3 -33 -7 -69 -10 -36 -2 -65 -5 -65 -6 0 -1 -13
-3 -30 -5 -98 -11 -372 -81 -450 -115 -18 -7 -51 -20 -65 -25 -40 -13 -272
-125 -280 -134 -3 -4 -34 -24 -70 -45 -36 -22 -66 -43 -68 -48 -2 -4 -10 -8
-18 -8 -8 0 -17 -7 -20 -15 -4 -8 -10 -12 -15 -9 -5 3 -9 0 -9 -5 0 -6 -7 -11
-15 -11 -8 0 -15 -4 -15 -8 0 -5 -19 -23 -42 -40 -118 -86 -257 -228 -372
-377 -42 -55 -80 -104 -84 -110 -35 -45 -185 -315 -175 -315 3 0 -2 -9 -12
-20 -10 -11 -15 -23 -12 -26 3 -4 0 -16 -8 -28 -8 -11 -15 -28 -15 -37 0 -10
-3 -19 -8 -21 -12 -5 -82 -225 -98 -308 -3 -14 -11 -56 -19 -95 -8 -38 -17
-95 -20 -125 -3 -30 -8 -75 -11 -100 -6 -54 -5 -339 1 -395 12 -115 17 -146
30 -217 20 -109 49 -215 90 -331 20 -56 38 -106 39 -112 6 -23 31 -71 41 -77
5 -4 6 -8 2 -8 -9 0 95 -202 126 -244 4 -6 28 -42 54 -81 58 -88 136 -186 193
-244 14 -14 35 -39 48 -55 12 -16 22 -27 22 -24 0 2 28 -23 63 -55 111 -106
282 -232 422 -310 42 -23 123 -62 220 -107 36 -16 100 -42 115 -45 8 -2 35
-12 60 -21 39 -14 116 -36 173 -50 9 -2 27 -6 40 -9 40 -10 191 -37 227 -40
130 -14 182 -17 295 -18 69 -1 128 0 131 2 2 2 30 5 63 7 160 6 424 63 588
125 43 17 85 32 94 34 9 2 25 8 35 13 11 5 71 35 134 67 115 58 222 121 271
159 15 12 39 30 55 41 111 78 324 284 406 392 147 192 242 353 314 532 19 47
40 95 45 106 6 12 12 27 13 35 13 61 20 81 27 86 5 3 7 9 4 14 -3 5 -1 18 4
28 6 11 12 30 15 43 2 13 12 58 20 99 9 41 18 91 20 110 3 19 5 35 6 35 3 0 8
54 12 117 2 32 5 58 8 58 11 0 0 329 -14 430 -2 14 -7 48 -11 75 -12 89 -48
246 -73 315 -3 8 -6 21 -8 27 -4 22 -55 156 -81 213 -54 121 -122 246 -169
313 -19 26 -34 51 -34 56 0 5 -4 11 -8 13 -5 2 -19 19 -33 39 -47 70 -196 239
-268 303 -19 17 -49 45 -68 63 -18 17 -33 29 -33 26 0 -2 -7 3 -16 12 -63 63
-286 205 -434 277 -130 63 -347 143 -382 142 -10 -1 -18 3 -18 9 0 6 -3 8 -6
4 -3 -3 -18 -1 -33 5 -14 5 -35 11 -46 13 -67 10 -102 17 -114 21 -8 3 -35 7
-60 10 -26 3 -57 8 -71 11 -32 6 -476 14 -481 9z m406 -931 c129 -27 305 -84
305 -97 0 -4 6 -8 13 -8 13 0 127 -58 137 -69 3 -3 18 -13 34 -21 15 -8 38
-25 50 -37 11 -13 25 -23 29 -23 7 0 176 -167 212 -210 27 -31 101 -148 125
-195 14 -28 28 -52 31 -55 5 -4 52 -117 55 -130 0 -3 9 -32 19 -65 22 -70 21
-68 30 -120 4 -22 9 -43 11 -46 7 -13 18 -145 18 -229 0 -91 -13 -226 -27
-280 -2 -8 -7 -28 -11 -45 -20 -77 -47 -160 -57 -172 -6 -7 -9 -13 -6 -13 12
0 -109 -234 -137 -263 -6 -7 -30 -37 -52 -67 -64 -84 -220 -236 -258 -249 -6
-2 -13 -7 -16 -10 -13 -16 -102 -71 -114 -71 -8 0 -16 -3 -18 -7 -8 -19 -253
-113 -275 -106 -6 2 -14 0 -17 -6 -4 -6 -13 -8 -21 -4 -8 3 -15 1 -15 -4 0 -5
-6 -10 -12 -10 -7 0 -51 -4 -98 -9 -146 -14 -307 -6 -415 21 -5 1 -29 6 -52
10 -24 4 -43 12 -43 17 0 6 -6 8 -14 5 -7 -3 -19 0 -25 6 -6 6 -11 7 -11 3 0
-5 -6 -4 -12 1 -7 5 -32 15 -55 23 -24 7 -43 17 -43 22 0 4 -3 7 -7 6 -16 -4
-188 98 -229 136 -6 6 -22 18 -34 26 -31 21 -139 128 -175 175 -16 21 -40 50
-52 66 -13 15 -23 32 -23 38 0 7 -7 14 -15 17 -8 4 -15 10 -15 15 0 5 -17 40
-38 77 -21 37 -39 70 -40 75 -1 4 -8 20 -17 37 -23 44 -75 211 -78 247 -1 18
-4 33 -8 33 -5 0 -11 54 -13 113 -1 15 -4 27 -7 27 -7 0 -3 234 6 290 4 25 8
56 10 70 2 14 4 25 5 25 1 0 4 14 6 30 19 117 122 349 215 484 81 119 274 301
379 357 19 11 37 21 40 24 15 15 68 39 74 33 3 -3 6 -2 6 4 0 6 8 13 18 16 9
3 42 15 72 26 76 29 177 56 255 67 22 4 42 8 44 10 6 6 323 -3 356 -11z"/>
<path d="M5637 12775 c-6 -19 1 -2411 7 -2490 4 -44 9 -91 12 -105 3 -14 7
-47 10 -75 5 -50 11 -90 14 -90 1 0 4 -11 6 -25 9 -51 53 -218 69 -261 9 -24
17 -48 19 -54 2 -5 8 -21 13 -35 6 -14 9 -28 6 -32 -2 -5 1 -8 6 -8 6 0 10 -3
9 -7 -7 -34 195 -399 236 -425 6 -4 7 -8 1 -8 -6 0 -5 -3 1 -8 6 -4 35 -36 64
-71 49 -58 141 -153 187 -191 15 -12 105 -85 148 -118 54 -42 270 -157 380
-202 29 -12 135 -50 138 -49 1 0 9 -2 17 -5 79 -27 271 -68 380 -81 157 -18
440 -26 440 -12 0 4 8 3 19 -2 10 -6 21 -8 24 -5 2 3 29 7 58 10 99 9 144 14
169 18 14 3 41 7 60 10 42 6 209 44 230 53 8 3 21 7 28 9 45 9 185 65 287 114
114 56 266 146 273 162 2 4 10 8 18 8 8 0 14 4 14 8 0 5 20 23 44 40 51 37
219 201 256 251 14 19 35 45 47 60 13 14 23 29 23 33 0 4 6 13 13 20 14 15 60
86 86 131 91 164 148 299 197 466 27 91 28 94 45 181 5 30 12 64 15 76 2 11 6
36 8 55 3 19 5 34 6 34 1 0 3 20 4 45 2 25 7 88 11 140 9 118 10 2428 1 2438
-9 8 -964 10 -977 1 -6 -4 -11 -457 -13 -1235 -1 -676 -5 -1240 -9 -1254 -3
-14 -8 -41 -11 -60 -10 -62 -42 -186 -53 -204 -4 -6 -8 -17 -10 -25 -4 -29
-112 -232 -133 -251 -3 -3 -18 -22 -34 -44 -52 -69 -172 -176 -251 -223 -55
-32 -195 -95 -195 -87 0 2 -9 0 -19 -6 -25 -13 -149 -39 -221 -46 -126 -12
-330 1 -394 26 -15 5 -26 8 -26 5 0 -5 -55 13 -99 32 -18 8 -39 16 -45 17 -19
4 -90 40 -104 53 -6 6 -21 15 -32 18 -11 3 -20 10 -20 15 0 5 -10 12 -22 15
-11 4 -57 44 -102 89 -90 90 -109 113 -139 165 -12 20 -24 38 -28 41 -21 16
-102 215 -125 305 -15 56 -21 91 -27 150 -2 11 -5 25 -8 30 -8 13 -10 200 -12
1430 l-2 1050 -492 0 c-320 0 -494 -4 -496 -10z"/>
<path d="M161 12766 c-6 -7 -6 -18 -1 -26 5 -8 5 -21 0 -30 -5 -9 -5 -22 0
-30 5 -8 6 -18 4 -22 -5 -8 -6 -74 -3 -168 0 -19 0 -37 -1 -40 -5 -17 -4 -210
2 -210 4 0 3 -13 -2 -30 -5 -18 -5 -32 1 -35 5 -4 5 -13 0 -24 -6 -10 -6 -23
-1 -31 5 -8 5 -21 0 -31 -5 -9 -7 -19 -3 -22 7 -8 8 -106 0 -113 -3 -3 -1 -19
3 -35 5 -16 6 -29 2 -29 -8 0 -6 -85 2 -106 3 -8 2 -14 -2 -14 -6 0 -6 -65 -1
-235 0 -22 0 -42 -1 -45 -5 -16 -4 -210 2 -210 4 0 3 -13 -2 -30 -5 -18 -5
-32 1 -35 5 -4 5 -13 0 -24 -6 -10 -6 -23 -1 -31 5 -8 5 -21 0 -31 -5 -9 -7
-19 -3 -22 7 -8 8 -106 0 -113 -3 -3 -1 -19 3 -35 5 -16 6 -29 2 -29 -8 0 -6
-85 2 -106 3 -8 2 -14 -2 -14 -6 0 -6 -65 -1 -235 0 -22 0 -42 -1 -45 -5 -16
-4 -210 2 -210 4 0 3 -13 -2 -30 -5 -18 -5 -32 1 -35 5 -4 5 -13 0 -24 -6 -10
-6 -23 -1 -31 5 -8 5 -21 0 -31 -5 -9 -7 -19 -3 -22 7 -8 8 -106 0 -113 -3 -3
-1 -19 3 -35 5 -16 6 -29 2 -29 -8 0 -6 -85 2 -106 3 -8 2 -14 -2 -14 -6 0 -6
-65 -1 -235 0 -22 0 -42 -1 -45 -5 -16 -4 -210 2 -210 4 0 3 -13 -2 -30 -5
-18 -5 -32 1 -35 5 -4 5 -13 0 -24 -6 -10 -6 -23 -1 -31 5 -8 5 -21 0 -31 -5
-9 -7 -19 -3 -22 7 -8 8 -106 0 -113 -3 -3 -1 -19 3 -35 5 -16 6 -29 2 -29 -8
0 -6 -85 2 -106 3 -8 2 -14 -2 -14 -7 0 -6 -145 0 -238 2 -24 1 -45 -2 -47 -3
-2 -4 -20 -2 -39 l4 -36 1372 4 c754 1 1385 5 1401 9 17 3 48 8 70 12 22 3 47
8 55 11 8 3 30 7 49 10 18 2 38 7 45 11 6 4 19 9 28 10 34 5 139 45 210 80
179 86 363 242 460 388 46 70 118 205 122 228 1 7 4 17 8 22 8 13 46 151 52
190 24 143 27 295 9 396 -8 41 -15 83 -17 94 -2 11 -16 56 -31 99 -57 165
-151 305 -299 449 -44 42 -83 77 -88 77 -4 0 -16 10 -28 22 -11 12 -20 18 -20
12 0 -5 -4 -4 -8 2 -9 13 -98 74 -109 74 -4 0 -19 9 -32 19 l-24 19 23 12 c27
15 28 15 94 72 99 86 204 210 243 288 10 19 21 37 24 40 8 7 22 44 21 53 -1 4
3 7 9 7 5 0 8 4 4 9 -3 5 -1 12 5 16 5 3 10 15 10 26 0 10 4 19 8 19 5 0 9 6
9 13 0 6 6 32 13 57 47 172 44 350 -11 550 -12 41 -25 80 -29 85 -5 6 -8 12
-8 15 -2 45 -119 244 -187 315 -18 19 -30 35 -27 35 3 0 -6 9 -19 21 -13 11
-39 34 -56 50 -56 52 -226 169 -253 174 -3 1 -32 14 -65 29 -70 32 -117 49
-200 71 -182 49 -165 48 -1532 50 -964 2 -1295 -1 -1302 -9z m2349 -835 c80
-19 174 -67 220 -110 22 -21 40 -41 40 -45 0 -4 10 -22 23 -39 12 -18 24 -39
26 -47 2 -8 9 -37 17 -64 27 -100 0 -241 -62 -324 -29 -38 -71 -82 -80 -82 -3
0 -17 -9 -33 -21 -15 -11 -34 -22 -42 -23 -8 -2 -21 -6 -29 -9 -76 -33 -124
-36 -781 -37 l-655 0 1 407 c1 225 3 408 4 408 0 0 292 0 649 0 498 -1 660 -4
702 -14z m180 -1660 c41 -12 85 -29 98 -37 12 -8 22 -11 22 -7 0 5 4 4 8 -2 4
-5 27 -26 52 -45 25 -19 47 -38 48 -42 2 -5 9 -14 16 -21 25 -25 53 -74 70
-119 48 -129 37 -270 -29 -398 -15 -29 -95 -115 -137 -147 -33 -25 -131 -62
-208 -80 -8 -2 -41 -4 -72 -6 -32 -1 -58 -6 -58 -10 0 -4 -8 -4 -17 0 -22 11
-144 10 -161 -1 -6 -4 -12 -3 -12 1 0 5 -28 7 -62 5 -35 -1 -67 -2 -73 -2 -5
0 -44 1 -85 3 -41 1 -81 -2 -87 -6 -7 -5 -13 -6 -13 -1 0 11 -170 11 -188 0
-6 -4 -12 -4 -12 1 0 4 -11 8 -25 8 -14 0 -25 -4 -25 -9 0 -5 -6 -4 -12 1 -15
11 -148 10 -166 -1 -7 -4 -12 -4 -12 1 0 10 -141 10 -158 -1 -6 -4 -12 -4 -12
1 0 4 -27 8 -60 8 -33 0 -60 -4 -60 -8 0 -5 -6 -5 -12 0 -7 4 -26 8 -43 9 -16
1 -35 2 -41 3 -7 1 -10 140 -9 464 1 254 3 462 4 463 0 0 328 0 729 -1 719 -2
728 -2 802 -24z"/>
<path d="M11581 12765 c-4 -5 -7 -959 -7 -2120 l1 -2110 495 0 495 0 2 620 c1
341 2 637 3 657 0 34 2 37 23 30 24 -9 56 -8 82 1 9 4 14 3 11 -1 -3 -5 15 -6
39 -2 25 4 45 3 45 -1 0 -5 11 -4 25 1 13 5 26 6 29 2 5 -9 82 -6 98 4 6 4 8
3 5 -3 -4 -6 10 -7 38 -3 25 4 45 4 45 1 0 -8 58 -6 66 2 4 3 14 2 23 -3 10
-5 23 -5 30 0 8 4 27 4 42 0 18 -5 29 -5 29 1 0 6 7 6 19 -1 11 -5 22 -7 25
-2 4 6 49 8 66 2 15 -6 58 -4 78 2 13 5 21 4 18 0 -2 -4 10 -6 28 -4 34 4 42
-2 86 -68 8 -12 27 -36 42 -54 15 -17 28 -36 28 -43 0 -6 4 -13 9 -15 5 -1 59
-70 120 -153 61 -82 118 -159 126 -170 9 -11 36 -47 60 -80 25 -33 48 -64 53
-70 4 -5 19 -26 32 -45 14 -19 30 -42 37 -50 7 -8 46 -60 87 -115 41 -55 79
-105 84 -110 5 -6 17 -24 28 -40 10 -17 21 -32 24 -35 3 -3 46 -59 95 -125 49
-66 94 -123 100 -127 14 -10 1143 -10 1149 1 3 4 -22 44 -55 87 -33 43 -68 90
-77 103 -9 13 -25 33 -34 45 -10 11 -46 59 -80 106 -35 47 -67 90 -73 96 -5 6
-17 21 -25 33 -38 55 -401 538 -419 558 -12 12 -21 25 -21 27 0 3 -24 36 -52
74 -29 38 -62 81 -73 96 -11 15 -28 37 -37 48 -10 12 -18 24 -18 27 0 3 -14
21 -30 40 -17 18 -30 37 -30 40 0 3 -11 18 -25 33 l-25 28 82 41 c46 23 85 45
86 50 2 5 9 9 16 9 6 0 23 9 36 19 14 11 53 40 86 65 74 55 165 143 219 211
22 28 43 52 46 55 9 8 79 109 79 115 0 3 10 22 23 43 40 64 117 252 133 323 3
13 6 29 8 34 15 59 27 129 22 141 -3 8 -2 14 2 14 23 0 21 348 -2 463 -3 15
-8 37 -10 50 -8 44 -28 113 -53 182 -14 39 -25 76 -26 83 0 6 -4 12 -8 12 -5
0 -14 18 -20 40 -7 22 -16 40 -21 40 -5 0 -7 4 -4 9 3 4 -6 23 -19 41 -14 19
-25 39 -25 46 0 7 -3 14 -7 16 -5 2 -25 28 -46 58 -98 143 -228 268 -387 372
-79 52 -250 142 -250 132 0 -2 -14 3 -30 11 -28 15 -112 42 -185 61 -16 4 -34
8 -40 10 -26 7 -68 15 -165 30 -92 14 -250 17 -1288 18 -779 1 -1186 -2 -1191
-9z m2294 -918 c80 -16 101 -20 110 -26 6 -3 18 -7 29 -8 10 -2 50 -20 89 -40
90 -48 178 -136 223 -225 19 -37 34 -70 33 -73 0 -3 3 -20 7 -38 4 -17 8 -48
10 -67 1 -19 3 -37 4 -40 1 -3 1 -9 0 -15 -1 -5 -4 -37 -6 -70 -7 -86 -6 -85
-16 -85 -5 0 -6 -5 -3 -10 12 -20 -64 -157 -118 -212 -83 -84 -178 -132 -327
-164 -72 -16 -1303 -26 -1327 -11 -12 8 -14 1079 -2 1087 9 6 1263 3 1294 -3z"/>
<path d="M2365 6655 c-151 -30 -219 -97 -217 -215 0 -49 6 -68 25 -91 9 -10
17 -22 17 -26 0 -9 30 -31 74 -54 42 -23 226 -90 226 -83 0 2 28 -11 62 -29
44 -23 64 -40 71 -61 27 -82 -75 -132 -228 -112 -64 9 -86 15 -101 27 -8 6
-14 9 -14 5 0 -4 -18 3 -41 14 -23 12 -42 20 -43 18 -1 -2 -11 -16 -21 -33
-20 -30 -45 -75 -45 -80 0 -1 27 -14 60 -29 113 -51 266 -69 375 -43 22 5 45
10 50 11 19 4 80 37 102 55 36 30 61 100 58 159 -5 97 -65 156 -215 213 -19 8
-38 13 -42 11 -5 -1 -8 3 -8 8 0 6 -8 10 -17 10 -25 0 -117 33 -125 45 -4 5
-8 7 -8 2 0 -14 -49 24 -55 43 -16 49 -14 61 16 82 16 12 39 24 52 26 30 6
115 6 157 0 33 -5 46 -9 88 -25 9 -3 19 -7 22 -7 3 -1 15 -8 28 -15 21 -11 26
-10 43 10 10 12 19 28 19 35 0 7 4 14 9 16 5 2 11 12 13 23 2 15 -9 25 -46 43
-103 49 -235 68 -341 47z"/>
<path d="M14510 6662 c-75 -10 -180 -68 -238 -131 -39 -43 -93 -148 -99 -193
-9 -70 -4 -165 11 -200 4 -9 8 -23 10 -31 1 -8 9 -26 19 -40 9 -15 17 -31 17
-37 0 -5 5 -10 10 -10 6 0 10 -4 10 -10 0 -13 55 -66 105 -100 90 -61 246 -82
345 -46 25 9 50 18 55 19 6 1 12 4 15 7 3 3 24 17 46 32 58 38 112 106 143
185 24 57 27 79 25 148 -3 105 -3 101 -34 170 -76 167 -252 262 -440 237z
m123 -146 c9 9 101 -42 131 -72 25 -25 57 -76 62 -96 1 -5 2 -9 4 -10 6 -9 12
-49 11 -87 -1 -114 -72 -212 -178 -249 -18 -6 -33 -9 -33 -7 0 3 -11 0 -25 -5
-14 -5 -25 -6 -25 -2 0 4 -14 7 -32 6 -74 -2 -173 68 -213 151 -25 53 -28 144
-7 203 18 48 79 120 122 143 38 20 132 37 156 28 12 -4 24 -5 27 -3z"/>
<path d="M7795 6636 c-78 -37 -126 -116 -120 -199 3 -47 18 -92 34 -101 5 -4
-9 -26 -33 -49 -54 -56 -77 -105 -81 -177 -2 -48 2 -68 27 -116 60 -120 188
-171 354 -139 30 5 115 46 140 66 8 7 27 -5 59 -35 l47 -45 39 41 c21 23 39
45 39 50 0 5 6 6 13 2 6 -4 -10 16 -37 44 -53 55 -53 49 2 108 16 18 20 32 16
50 -3 13 -10 24 -15 24 -4 0 -19 11 -33 25 -14 14 -29 25 -35 25 -5 0 -25 -18
-44 -40 -19 -22 -37 -40 -41 -40 -9 0 -32 19 -54 44 -9 10 -28 28 -41 40 -13
12 -51 47 -85 80 -33 32 -68 63 -76 70 -29 21 -60 69 -60 91 0 31 29 64 60 68
28 5 56 -12 109 -61 l35 -33 43 47 c24 25 43 48 43 50 0 9 -76 78 -111 101
-53 35 -131 39 -194 9z m193 -564 c17 -17 32 -34 32 -39 0 -16 -85 -45 -130
-44 -78 2 -82 3 -122 43 -29 29 -38 46 -38 72 0 38 35 95 69 112 21 11 29 6
90 -51 36 -35 81 -77 99 -93z"/>
<path d="M1162 6635 c-9 -12 -11 -764 -3 -766 3 -1 144 -2 313 -3 207 -1 308
1 311 9 3 9 2 60 -2 107 -1 11 -9 18 -23 18 -13 -1 -41 0 -63 1 -22 0 -44 0
-50 -1 -21 -4 -96 -1 -104 5 -6 3 -12 1 -16 -5 -4 -6 -11 -8 -16 -4 -9 5 -84
8 -101 4 -8 -2 -56 -2 -86 -1 -13 1 -19 10 -20 38 -2 20 -5 40 -8 44 -2 4 0
10 5 14 6 3 7 15 2 28 -5 12 -5 31 -1 42 7 19 16 20 196 21 104 0 194 3 199 6
8 5 10 52 6 125 -1 8 -10 9 -29 3 -16 -4 -36 -4 -45 1 -10 6 -18 5 -22 -1 -4
-6 -11 -7 -17 -4 -14 9 -128 11 -128 3 0 -4 -15 -3 -34 1 -19 4 -41 3 -51 -3
-13 -7 -16 -6 -11 2 5 8 -1 10 -23 6 -16 -3 -33 -1 -36 5 -6 9 -9 102 -5 125
1 6 1 20 1 31 -2 22 -1 22 235 23 160 0 240 4 244 11 9 14 6 108 -4 117 -11
11 -607 9 -614 -2z"/>
<path d="M3111 6640 c-12 -9 -10 -130 3 -131 6 0 67 -1 136 -2 l125 -2 0 -315
c0 -199 4 -318 10 -322 16 -12 146 -8 139 4 -10 16 -10 88 -1 88 5 0 5 5 2 10
-8 12 -10 169 -2 176 3 3 2 18 -3 33 -4 16 -4 34 0 41 4 6 4 27 0 46 -4 19 -4
36 0 39 5 3 5 18 0 34 -4 15 -4 34 0 40 6 11 6 40 -1 78 -1 4 -1 17 0 29 1 20
7 21 133 22 72 1 133 4 136 6 4 5 6 54 3 106 l-1 25 -336 0 c-185 0 -339 -2
-343 -5z"/>
<path d="M4317 6642 c-9 -2 -17 -11 -17 -21 0 -9 -4 -21 -8 -26 -4 -6 -22 -46
-39 -90 -46 -117 -46 -119 -45 -127 1 -5 -2 -8 -8 -8 -5 0 -10 -6 -10 -14 0
-7 -8 -31 -17 -52 -9 -22 -17 -41 -18 -44 -1 -3 -8 -18 -15 -35 -7 -16 -14
-34 -15 -40 -2 -5 -28 -72 -58 -148 -31 -76 -58 -145 -59 -154 -2 -14 7 -17
52 -19 30 -1 62 0 71 2 12 3 35 46 44 84 1 3 7 18 13 33 7 16 12 32 12 37 0
17 37 20 207 21 181 1 203 -4 203 -42 0 -10 5 -21 10 -24 6 -4 9 -9 6 -13 -2
-4 6 -27 18 -52 l21 -44 72 -2 71 -1 -10 26 c-6 14 -15 37 -20 51 -6 14 -17
37 -25 52 -7 15 -13 30 -13 33 2 7 -31 97 -40 110 -4 6 -17 37 -30 70 -12 33
-28 74 -35 90 -8 17 -23 57 -36 90 -12 33 -26 66 -32 73 -5 6 -6 12 -2 12 4 0
3 6 -2 13 -6 6 -16 29 -22 49 -7 20 -20 54 -31 75 l-18 37 -79 1 c-44 0 -87
-1 -96 -3z m107 -184 c-2 -3 0 -9 6 -13 6 -4 8 -11 5 -16 -4 -5 -1 -9 4 -9 6
0 11 -8 11 -18 0 -10 4 -22 8 -27 11 -12 53 -127 51 -139 0 -5 4 -12 9 -15 6
-3 12 -15 14 -26 3 -19 -3 -20 -129 -22 -73 -1 -133 2 -133 6 0 5 7 26 16 47
9 22 21 50 27 64 6 14 11 27 11 30 3 13 29 78 42 102 8 15 15 31 16 35 0 5 5
19 10 33 l10 25 13 -25 c7 -14 11 -28 9 -32z"/>
<path d="M5032 6642 c-22 -3 -23 -8 -21 -68 2 -51 5 -64 18 -64 9 -1 70 -2
136 -3 l120 -2 1 -310 c1 -170 2 -316 3 -323 1 -9 19 -12 69 -10 l67 3 2 310
c1 171 2 316 2 322 1 9 35 12 135 10 l134 -2 4 46 c2 25 1 57 -2 70 l-5 24
-320 0 c-176 0 -330 -1 -343 -3z"/>
<path d="M6080 6640 c-4 -3 -7 -178 -6 -390 l1 -385 313 0 312 -1 1 23 c0 13
1 39 1 58 0 60 -1 65 -16 59 -24 -9 -79 -10 -103 -2 -12 4 -25 3 -28 -2 -3 -5
-13 -6 -22 -3 -15 6 -72 7 -90 3 -17 -4 -94 -1 -102 5 -6 3 -12 1 -16 -4 -3
-6 -12 -8 -20 -5 -8 3 -32 7 -52 7 -32 2 -38 5 -35 22 3 20 3 45 -2 118 -1 20
0 38 3 38 3 1 92 2 196 3 188 2 222 7 208 29 -10 16 -10 80 0 95 11 15 18 13
-71 15 -41 1 -76 -1 -79 -6 -2 -4 -12 -4 -21 1 -21 9 -43 9 -59 -1 -7 -5 -13
-4 -13 0 0 5 -36 8 -80 7 -44 -1 -80 1 -81 4 -3 22 -4 159 -1 169 3 9 63 12
239 12 129 -1 236 1 238 2 4 5 7 55 6 99 l-1 35 -306 0 c-168 0 -310 -2 -314
-5z"/>
<path d="M9191 6640 c-4 -3 -6 -178 -6 -390 l0 -385 188 0 c205 -1 261 8 337
52 57 33 95 68 122 113 12 19 24 37 28 40 6 6 29 69 36 102 45 200 -83 408
-285 460 -37 10 -408 17 -420 8z m399 -145 c125 -39 201 -191 161 -322 -1 -2
-1 -6 0 -9 0 -3 -12 -22 -27 -42 -72 -98 -109 -114 -271 -117 l-123 -3 0 248
c0 135 2 249 5 251 7 8 228 3 255 -6z"/>
<path d="M10288 6642 c-13 -3 -15 -49 -15 -387 0 -266 4 -385 11 -388 6 -2
146 -3 311 -3 l300 1 0 22 c0 12 3 25 7 28 3 4 3 19 -1 33 -5 15 -6 33 -4 39
3 9 -7 12 -35 11 -21 0 -43 2 -48 5 -6 3 -16 2 -24 -3 -7 -4 -23 -5 -34 -1
-12 4 -32 5 -46 1 -14 -4 -34 -3 -46 1 -11 4 -27 4 -34 -1 -7 -5 -23 -5 -34
-1 -12 4 -32 5 -46 1 -14 -4 -35 -3 -47 1 -12 5 -25 4 -28 -1 -3 -4 -17 -5
-32 -1 -28 7 -28 8 -28 97 l-1 90 198 -1 c124 0 199 4 202 10 2 5 3 34 2 64
-1 46 -4 55 -24 62 -15 6 -21 5 -17 -1 4 -7 -3 -7 -19 0 -16 6 -27 6 -31 -1
-4 -5 -11 -6 -17 -3 -16 10 -128 10 -128 0 0 -4 -6 -4 -12 1 -7 5 -24 8 -38 6
-29 -4 -67 -4 -95 1 -17 2 -20 11 -21 89 -1 71 2 88 15 92 9 2 108 4 221 4
113 0 215 0 227 0 20 1 22 6 22 69 l0 67 -298 0 c-163 0 -304 -1 -313 -3z"/>
<path d="M11238 6642 c-13 -3 -10 -17 19 -85 19 -45 36 -89 38 -97 4 -14 87
-222 106 -265 4 -11 28 -69 52 -130 41 -102 57 -142 62 -155 2 -3 6 -14 9 -25
7 -19 15 -21 87 -20 59 0 82 4 89 15 5 8 6 18 4 22 -3 4 0 8 5 8 6 0 11 9 11
19 0 11 5 23 10 26 6 4 8 10 5 15 -3 5 0 14 7 22 7 7 14 20 16 28 2 13 39 111
63 165 4 11 20 49 34 85 14 36 30 74 35 85 4 11 29 74 55 140 26 66 52 126 57
133 8 9 5 12 -8 13 -23 1 -114 1 -130 0 -6 -1 -23 -34 -38 -73 -15 -40 -33
-86 -41 -101 -8 -16 -15 -33 -15 -38 0 -6 -8 -29 -19 -52 -22 -51 -33 -79 -37
-92 -1 -5 -20 -55 -42 -110 -22 -55 -43 -109 -46 -120 -7 -18 -8 -17 -21 10
-20 47 -28 69 -27 78 1 4 -2 7 -8 7 -6 0 -9 3 -8 8 1 4 -4 21 -11 37 -7 17
-14 35 -15 40 -1 6 -10 25 -19 42 -10 18 -17 35 -17 38 -1 7 -11 38 -21 60 -7
17 -109 268 -109 269 0 3 -119 0 -132 -2z"/>
<path d="M12354 6641 c-2 -2 -4 -178 -4 -390 l0 -386 308 0 c169 0 313 4 320
8 9 6 9 13 2 28 -6 10 -7 19 -3 19 5 0 7 18 5 40 -4 39 -5 40 -41 38 -21 0
-42 2 -47 5 -6 3 -16 2 -24 -3 -7 -4 -23 -5 -34 -1 -12 4 -32 5 -46 1 -14 -4
-34 -3 -46 1 -11 4 -27 4 -34 -1 -7 -4 -23 -5 -34 0 -11 4 -32 4 -46 0 -14 -4
-34 -4 -45 0 -11 4 -29 4 -41 0 -38 -15 -47 2 -48 94 -1 47 1 87 4 87 3 1 93
2 200 3 l195 2 2 49 c4 77 -2 92 -35 90 -15 -1 -33 -5 -40 -9 -7 -4 -12 -3
-12 2 0 10 -50 9 -68 -2 -7 -4 -12 -2 -12 5 0 8 -4 8 -15 -1 -8 -7 -15 -9 -15
-4 0 10 -151 11 -166 1 -6 -3 -16 -2 -24 3 -11 7 -14 32 -15 99 l0 90 175 0
c96 0 205 0 241 0 l67 1 4 36 c2 19 1 37 -4 40 -4 3 -3 16 2 29 5 14 6 25 2
26 -26 3 -624 3 -628 0z"/>
<path d="M13371 6635 c-5 -8 -7 -714 -2 -760 1 -11 540 -16 542 -5 0 3 1 32 2
65 1 70 8 67 -148 64 -16 0 -39 0 -50 1 -11 1 -26 1 -32 1 -7 -1 -21 -1 -30
-1 -10 0 -31 0 -48 -1 -28 0 -50 1 -82 3 -10 1 -13 73 -13 322 l0 321 -66 0
c-36 0 -69 -4 -73 -10z"/>
<path d="M15364 6642 c-21 -3 -21 -7 -20 -205 1 -111 -3 -208 -8 -214 -5 -8
-5 -13 0 -13 11 0 10 -211 0 -228 -4 -7 -3 -12 1 -12 5 0 9 -24 9 -52 l-1 -53
60 -1 c77 -1 87 3 85 35 -1 14 -2 60 -1 101 l1 76 143 -1 c150 -1 205 9 262
49 40 28 75 63 75 76 0 5 4 10 9 10 8 0 27 40 38 80 11 41 4 128 -12 165 -10
22 -18 43 -17 47 1 3 -16 22 -38 42 -22 20 -37 36 -33 36 15 1 -96 51 -124 57
-30 6 -393 10 -429 5z m412 -146 c44 -10 93 -67 96 -111 2 -19 6 -35 10 -35 9
0 -22 -59 -46 -88 -12 -13 -32 -29 -46 -34 -26 -11 -299 -19 -301 -9 -3 15 -5
267 -2 276 4 12 240 13 289 1z"/>
<path d="M16374 6638 c-4 -6 -7 -594 -5 -743 l1 -31 70 0 70 0 2 253 3 253 38
-51 c20 -27 37 -54 37 -59 0 -4 4 -10 8 -12 4 -1 23 -25 42 -53 19 -27 38 -52
41 -55 3 -3 20 -26 38 -52 28 -43 36 -48 69 -48 46 0 48 1 104 80 26 36 52 70
58 77 5 7 10 17 10 23 0 5 4 10 8 10 5 0 28 29 51 65 24 36 49 68 55 72 6 3 8
3 4 -2 -4 -4 -3 -14 3 -22 6 -7 8 -13 3 -13 -9 0 -13 -459 -4 -461 21 -6 132
-5 135 1 5 8 6 44 4 105 0 22 0 45 1 50 1 6 2 26 1 45 -2 86 -3 106 -1 115 1
9 1 96 -1 190 0 22 0 45 1 50 2 14 0 154 -3 190 -2 31 -4 31 -95 26 -10 -1
-30 -18 -44 -38 -13 -21 -51 -76 -84 -122 -32 -46 -63 -90 -69 -99 -5 -9 -20
-27 -32 -41 -13 -14 -23 -31 -23 -37 0 -7 -7 -14 -15 -18 -8 -3 -15 -12 -15
-21 0 -8 -4 -15 -9 -15 -5 0 -13 -9 -16 -20 -3 -11 -10 -20 -15 -20 -4 0 -37
41 -72 91 -34 50 -70 99 -78 109 -8 10 -22 28 -30 40 -8 13 -31 44 -50 71 -19
26 -42 57 -50 69 -8 12 -20 29 -26 37 -11 16 -112 25 -120 11z"/>
<path d="M17643 6568 c1 -47 -2 -78 -8 -78 -7 0 -6 -3 0 -8 6 -4 9 -18 7 -32
-1 -14 -2 -36 -1 -50 0 -14 2 -140 2 -280 l2 -255 313 -1 c275 0 312 2 313 15
1 24 1 84 0 102 -1 16 -54 32 -66 21 -7 -7 -102 -5 -114 2 -5 4 -12 2 -16 -3
-3 -6 -13 -7 -22 -4 -15 6 -72 7 -90 3 -17 -4 -94 -1 -102 5 -6 3 -12 1 -15
-3 -3 -5 -17 -7 -31 -4 -25 4 -25 6 -25 96 l0 92 188 -1 c103 -1 193 1 200 3
15 5 17 131 2 133 -48 5 -130 2 -130 -4 0 -4 -8 -4 -17 0 -22 10 -44 10 -60 0
-7 -5 -13 -4 -13 0 0 5 -21 7 -47 6 -53 -4 -62 -4 -98 -2 -26 2 -27 5 -27 124
0 70 -24 64 238 64 130 0 238 2 241 5 4 4 7 69 4 111 -1 20 -8 20 -315 20
l-315 0 2 -77z"/>
<path d="M18661 6615 c-4 -16 -6 -34 -3 -39 4 -7 6 -108 2 -121 -2 -7 -2 -64
0 -67 7 -10 5 -48 -2 -48 -5 0 -5 -8 1 -17 5 -10 5 -26 1 -39 -5 -12 -6 -24
-3 -28 6 -6 8 -115 2 -121 -2 -2 -2 -38 1 -80 3 -42 3 -78 0 -80 -3 -2 -3 -27
0 -57 l5 -53 68 -1 c41 0 68 3 69 10 0 6 2 112 4 236 1 124 2 241 3 260 l1 34
17 -24 c21 -30 59 -75 96 -113 15 -16 27 -31 27 -33 0 -4 50 -61 88 -100 7 -8
11 -14 9 -14 -3 0 9 -15 26 -33 18 -18 50 -55 72 -81 22 -26 48 -58 59 -70 10
-11 27 -32 37 -45 16 -20 30 -25 74 -26 l55 -2 0 389 c0 303 -3 388 -12 389
-82 6 -121 3 -127 -11 -4 -8 -7 -123 -6 -255 1 -132 0 -244 -3 -248 -2 -4 -11
1 -20 11 -10 11 -37 43 -62 72 -25 29 -52 60 -60 69 -9 9 -56 63 -105 121 -50
58 -98 112 -107 121 -10 9 -18 21 -18 28 0 6 -4 11 -9 11 -4 0 -24 19 -42 43
-31 39 -38 42 -82 42 -45 1 -48 -1 -56 -30z"/>
<path d="M19737 6640 c-8 -3 -12 -28 -12 -67 l-1 -63 31 -1 c16 0 76 0 132 0
59 0 105 -4 108 -10 4 -5 6 -151 6 -324 l-1 -315 70 0 c66 0 70 1 71 23 0 12
1 157 2 322 l2 300 103 2 c56 1 117 2 135 3 l34 0 -1 67 -1 67 -333 1 c-183 0
-338 -2 -345 -5z"/>
</g>
</svg>
