<svg width="87" height="100" fill="none" xmlns="http://www.w3.org/2000/svg"><path d="M63.66 71.8c-3.731-1.397-7.983-3.57-7.983-6.382v-7.38c1.366-3.787 3.42-4.058 4.447-9.872 2.393-.855 3.76-2.223 5.47-8.208 1.284-4.505-.608-5.714-1.832-6.036.025-.24.05-.482.07-.765.462-6.747 4.38-26.773-9.182-29.167C51.06 1.198 48.782-.067 41.088.4c-4.87 0-8.573 1.074-13.732-.4-6.884 5.774-4.992 24.738-4.03 33.888-1.21.27-3.298 1.396-1.963 6.07 1.708 5.984 3.076 7.352 5.47 8.208 1.026 5.814 4.15 7.68 4.378 9.872v7.38c0 2.812-4.589 5.185-7.984 6.382C16.697 74.1-1.496 80.913.098 100H86.79c1.594-19.087-16.644-25.774-23.129-28.2z" fill="#9EA2A9"/></svg>