<svg width="52" height="60" fill="none" xmlns="http://www.w3.org/2000/svg"><path d="M3 2a2 2 0 012-2h31l15 15v43a2 2 0 01-2 2H5a2 2 0 01-2-2V2z" fill="#DDE1E7"/><path d="M36.124 13.019L36 0l15 15H38.124a2 2 0 01-2-1.981z" fill="#9EA2A9"/><rect y="30" width="33" height="20" rx="1" fill="#EE3135"/><path d="M6.116 45v-8.376h3.336c.752 0 1.328.216 1.728.648.408.424.612 1.008.612 1.752s-.204 1.332-.612 1.764c-.4.424-.976.636-1.728.636H7.124V45H6.116zm1.008-4.464h2.328c.4 0 .708-.104.924-.312.224-.208.336-.504.336-.888v-.624c0-.384-.112-.68-.336-.888-.216-.208-.524-.312-.924-.312H7.124v3.024zm6.27-3.912H16.2c.52 0 .992.088 1.416.264.424.176.784.44 1.08.792.304.344.536.78.696 1.308.16.52.24 1.128.24 1.824 0 .696-.08 1.308-.24 1.836-.16.52-.392.956-.696 1.308a2.842 2.842 0 01-1.08.78A3.66 3.66 0 0116.2 45h-2.808v-8.376zm2.807 7.488c.344 0 .66-.056.948-.168a2.11 2.11 0 00.744-.516c.208-.224.368-.496.48-.816.12-.328.18-.7.18-1.116v-1.368c0-.416-.06-.784-.18-1.104a2.281 2.281 0 00-.48-.828 1.982 1.982 0 00-.744-.504 2.44 2.44 0 00-.948-.18h-1.8v6.6h1.8zm5.243.888v-8.376h4.992v.888h-3.984v2.808h3.636v.888h-3.636V45h-1.008z" fill="#fff"/></svg>