<svg width="52" height="60" fill="none" xmlns="http://www.w3.org/2000/svg"><path d="M3 2a2 2 0 012-2h31l15 15v43a2 2 0 01-2 2H5a2 2 0 01-2-2V2z" fill="#DDE1E7"/><path d="M36.124 13.019L36 0l15 15H38.124a2 2 0 01-2-1.981z" fill="#9EA2A9"/><rect y="30" width="39" height="20" rx="1" fill="#00A1AB"/><path d="M7.28 45l-2.04-8.376h1.068l.9 4.032.696 3.132h.024l.78-3.132 1.056-4.032h1.152l1.02 4.032.78 3.12h.036l.72-3.12.948-4.032h1.032L13.304 45h-1.116l-1.092-4.176-.768-3.072h-.024l-.792 3.072L8.396 45H7.28zm11.592.144a2.79 2.79 0 01-1.14-.228 2.548 2.548 0 01-.888-.648 3.228 3.228 0 01-.564-1.02 4.159 4.159 0 01-.204-1.344c0-.488.068-.932.204-1.332.136-.4.324-.74.564-1.02.248-.288.544-.508.888-.66a2.79 2.79 0 011.14-.228c.416 0 .792.076 1.128.228.344.152.64.372.888.66.248.28.44.62.576 1.02.136.4.204.844.204 1.332 0 .496-.068.944-.204 1.344a3.103 3.103 0 01-.576 1.02c-.248.28-.544.496-.888.648a2.706 2.706 0 01-1.128.228zm0-.852c.52 0 .944-.16 1.272-.48.328-.32.492-.808.492-1.464v-.888c0-.656-.164-1.144-.492-1.464-.328-.32-.752-.48-1.272-.48s-.944.16-1.272.48c-.328.32-.492.808-.492 1.464v.888c0 .656.164 1.144.492 1.464.328.32.752.48 1.272.48zm4.375.708v-6.192h.96v1.14h.06a1.87 1.87 0 01.6-.792c.288-.232.684-.348 1.188-.348h.372v.96h-.564c-.52 0-.928.1-1.224.3-.288.192-.432.436-.432.732V45h-.96zm8.296-1.008h-.049c-.375.768-.98 1.152-1.811 1.152-.384 0-.732-.076-1.044-.228a2.324 2.324 0 01-.805-.648 3.12 3.12 0 01-.503-1.02 4.983 4.983 0 01-.168-1.344c0-.496.055-.944.168-1.344.12-.4.288-.74.503-1.02.224-.28.492-.496.805-.648.312-.152.66-.228 1.044-.228.431 0 .8.096 1.104.288.312.184.547.472.707.864h.049V36.12h.96V45h-.96v-1.008zm-1.596.288c.216 0 .42-.028.611-.084.2-.056.372-.136.517-.24.143-.112.256-.244.335-.396.088-.16.133-.34.133-.54v-2.304a.881.881 0 00-.133-.468 1.103 1.103 0 00-.335-.384 1.618 1.618 0 00-.517-.24 1.923 1.923 0 00-.611-.096c-.544 0-.973.172-1.284.516-.313.336-.468.78-.468 1.332v1.056c0 .552.155 1 .468 1.344.311.336.74.504 1.284.504z" fill="#fff"/></svg>