<svg width="36" height="16" fill="none" xmlns="http://www.w3.org/2000/svg"><mask id="a" fill="#fff"><path d="M16.674.503a2 2 0 012.652 0L36 15.266H0L16.674.503z"/></mask><path d="M16.674.503a2 2 0 012.652 0L36 15.266H0L16.674.503z" fill="#fff"/><path d="M36 15.266v1h2.638l-1.975-1.749-.663.749zm-36 0l-.663-.749-1.975 1.749H0v-1zM19.326.503l-.663.748.663-.748zm-2.652 0l.663.748-.663-.748zm1.989.748l16.674 14.763 1.326-1.497L19.989-.246 18.663 1.25zM36 14.266H0v2h36v-2zM.663 16.014L17.337 1.251 16.011-.246-.663 14.517l1.326 1.497zM19.989-.246a3 3 0 00-3.978 0l1.326 1.497a1 1 0 011.326 0l1.326-1.497z" fill="#DDE1E7" mask="url(#a)"/><path fill="#fff" d="M0 14h36v2H0z"/></svg>