<svg width="134" height="61" fill="none" xmlns="http://www.w3.org/2000/svg"><path d="M78.576 36h5.606l6.104 8.182h7.272l-6.796-9.07c3.333-1.471 5.346-4.632 5.346-8.268 0-5.043-3.896-9.177-9.848-9.177H72.342v26.515h6.212V36h.022zm0-12.597h7.208c2.77 0 4.09 1.558 4.09 3.441 0 1.905-1.32 3.42-4.09 3.42h-7.208v-6.861zm41.017-6.602c-8.074 0-14.177 6.299-14.177 14.026 0 7.727 6.103 14.07 14.177 14.07s14.178-6.343 14.178-14.07c0-7.728-6.104-14.026-14.178-14.026zm0 22.294c-4.654 0-8.009-3.94-8.009-8.268 0-4.33 3.334-8.269 8.009-8.269 4.675 0 8.009 3.94 8.009 8.269 0 4.329-3.355 8.268-8.009 8.268zm-84.372-7.337V17.602h6.212v14.415c0 3.593 2.121 7.121 6.602 7.121 4.48 0 6.645-3.528 6.645-7.12V17.601h6.212v14.134c0 7.77-4.849 13.16-12.857 13.16-8.009 0-12.814-5.368-12.814-13.138zm-9.87 4.848c0-3.593-2.77-5.693-4.2-6.364 1.104-.692 3.117-2.575 3.117-5.346 0-3.983-3.181-7.251-8.073-7.251H1v26.537h15.887c5.347 0 8.464-3.399 8.464-7.576zM7.212 22.84h7.554c2.013 0 3.03 1.125 3.03 2.576 0 1.407-.995 2.532-3.03 2.532H7.212V22.84zm0 16.147v-5.844h8.377c2.23 0 3.376 1.32 3.376 2.922 0 1.623-1.212 2.922-3.376 2.922H7.212zm0 16.991h3.94v.844h-3.03v1.17h2.51v.844h-2.51v1.168h3.03v.845h-3.94v-4.87zm10.152 3.529c0 1.082-1.018 1.428-2.078 1.428a3.827 3.827 0 01-1.992-.541l.455-.714c.498.281 1.06.454 1.58.454.671 0 1.104-.173 1.104-.584 0-.455-.585-.606-1.234-.823-.844-.26-1.796-.54-1.796-1.536 0-.39.173-.715.497-.953.347-.26.866-.39 1.494-.39.67 0 1.234.174 1.883.542l-.433.692c-.498-.281-.974-.433-1.493-.433-.693 0-1.018.217-1.018.498 0 .455.606.628 1.277.823.823.303 1.754.606 1.754 1.537zm2.034-3.529h4.308v.844h-1.71v4.048h-.888v-4.047h-1.71v-.845zm7.533 0l-1.948 4.87h.909l.433-1.103h2.38l.434 1.104h.909l-1.948-4.87h-1.17zm-.282 2.944l.866-2.164.866 2.164h-1.732zm4.676-2.944h4.307v.844h-1.71v4.048h-.887v-4.047h-1.71v-.845zm6.623 0h3.94v.844h-3.03v1.17h2.51v.844h-2.51v1.168h3.03v.845h-3.94v-4.87zm13.983 3.247l-.606-.584-.542.584-1.753-1.645c-.26-.238-.303-.498-.108-.714a.46.46 0 01.325-.152c.151 0 .303.087.433.217l.39.39.584-.607-.368-.368c-.303-.303-.671-.476-1.06-.454-.347 0-.694.151-.932.433-.432.476-.454 1.147-.065 1.666-.432.282-.779.78-.779 1.386 0 .887.78 1.601 1.775 1.601.584 0 1.104-.173 1.58-.54l.585.562.584-.628-.563-.54.52-.607zm-2.706.866c-.52 0-.909-.325-.909-.758 0-.41.303-.67.563-.757l1.299 1.212a1.559 1.559 0 01-.953.303zm10.282-4.113h-2.1v4.87h2.1c1.32 0 2.402-1.103 2.402-2.445a2.416 2.416 0 00-2.402-2.425zm-.022 4.005h-1.169v-3.139h1.169c.844 0 1.537.693 1.537 1.559 0 .865-.693 1.58-1.537 1.58zm4.719-4.005h3.917v.844h-3.03v1.17h2.51v.844h-2.51v1.168h3.03v.845h-3.917v-4.87zm9.891 0h.931l-1.948 4.87h-.996l-1.948-4.87h.93l1.538 3.81 1.493-3.81zm3.096 0h3.939v.844H78.1v1.17h2.51v.844H78.1v1.168h3.03v.845h-3.94v-4.87zm7.229 4.026h2.532v.845h-3.42v-4.87h.91v4.025h-.022zm6.688-4.177a2.582 2.582 0 00-2.576 2.576 2.582 2.582 0 002.576 2.575 2.582 2.582 0 002.576-2.575 2.596 2.596 0 00-2.576-2.576zm0 4.242c-.93 0-1.666-.757-1.666-1.666 0-.931.736-1.667 1.666-1.667.93 0 1.667.758 1.667 1.667 0 .93-.736 1.666-1.667 1.666zm7.23-4.09h-2.446v4.87h.909v-1.32h1.558c.996 0 1.797-.802 1.797-1.776a1.821 1.821 0 00-1.818-1.775zm-.022 2.683h-1.537v-1.818h1.537c.52 0 .93.411.93.93a.945.945 0 01-.93.888zm8.615-2.684h.692v4.87h-.887v-3.203l-1.515 2.1h-.52l-1.515-2.1v3.203h-.887v-4.87h.714l1.97 2.75 1.948-2.75zm3.355 0h3.917v.844h-3.03v1.17h2.511v.844h-2.511v1.168h3.03v.845h-3.939v-4.87h.022zm9.87 0h.909v4.87h-.649l-2.879-3.355v3.355h-.909v-4.87h.649l2.879 3.334v-3.334zm3.138 0h4.308v.844h-1.71v4.048h-.888v-4.047h-1.71v-.845z" fill="#161B25"/><path d="M46.606 8.879l-11.385 4.913V7.17L49.506 1v4.913L60.892 1v6.623l-14.286 6.17V8.878z" fill="#EE3135"/></svg>