<svg width="85" height="38" fill="none" xmlns="http://www.w3.org/2000/svg"><path d="M49.664 22.166h3.59l3.907 5.182h4.656l-4.351-5.743c2.134-.933 3.422-2.934 3.422-5.237 0-3.194-2.494-5.813-6.304-5.813h-8.91v16.793h3.976v-5.181h.014zm0-7.978h4.615c1.773 0 2.619.987 2.619 2.18 0 1.206-.846 2.166-2.62 2.166h-4.614v-4.346zm26.26-4.18c-5.17 0-9.077 3.988-9.077 8.882s3.908 8.91 9.077 8.91c5.168 0 9.076-4.016 9.076-8.91s-3.908-8.883-9.076-8.883zm0 14.119c-2.98 0-5.128-2.495-5.128-5.237s2.134-5.237 5.127-5.237c2.994 0 5.128 2.495 5.128 5.237s-2.148 5.237-5.127 5.237zM21.908 19.48v-8.966h3.977v9.13c0 2.276 1.358 4.51 4.227 4.51 2.868 0 4.254-2.234 4.254-4.51v-9.13h3.977v8.952c0 4.921-3.104 8.335-8.231 8.335s-8.204-3.4-8.204-8.321zm-6.319 3.07c0-2.275-1.773-3.605-2.688-4.03.707-.439 1.995-1.631 1.995-3.386 0-2.522-2.037-4.592-5.168-4.592H0v16.806h10.171c3.423 0 5.418-2.152 5.418-4.798zM3.977 13.832h4.836c1.289 0 1.94.713 1.94 1.631 0 .891-.637 1.604-1.94 1.604H3.977v-3.235zm0 10.226v-3.701H9.34c1.427 0 2.162.836 2.162 1.85 0 1.029-.777 1.851-2.162 1.851H3.977zm0 10.761h2.522v.535h-1.94v.74h1.607v.535H4.56v.74H6.5v.535H3.977v-3.085zm6.499 2.235c0 .685-.651.905-1.33.905a2.47 2.47 0 01-1.275-.343l.29-.452c.32.178.68.288 1.012.288.43 0 .707-.11.707-.37 0-.288-.374-.384-.79-.522-.54-.164-1.15-.342-1.15-.973a.72.72 0 01.319-.603c.222-.165.554-.247.956-.247.43 0 .79.11 1.206.343l-.277.439c-.32-.179-.624-.274-.957-.274-.443 0-.651.137-.651.315 0 .288.388.397.818.52.526.193 1.122.385 1.122.974zm1.303-2.235h2.757v.535h-1.095v2.564h-.568v-2.564H11.78v-.535zm4.822 0l-1.247 3.085h.582l.277-.7h1.524l.277.7h.582l-1.247-3.085h-.748zm-.18 1.865l.554-1.371.554 1.37h-1.108zm2.993-1.864h2.758v.534h-1.095v2.564h-.568v-2.564h-1.095v-.535zm4.24 0h2.522v.534h-1.94v.74h1.608v.535h-1.608v.74h1.94v.535h-2.522v-3.085zm8.952 2.056l-.388-.37-.347.37-1.122-1.042c-.166-.15-.194-.315-.07-.453a.296.296 0 01.209-.095c.097 0 .194.054.277.137l.25.246.373-.383-.235-.233c-.194-.192-.43-.302-.68-.288a.787.787 0 00-.595.274.804.804 0 00-.042 1.055 1.054 1.054 0 00-.498.878c0 .562.498 1.014 1.136 1.014.374 0 .707-.11 1.011-.343l.375.357.374-.398-.36-.342.332-.384zm-1.732.548c-.333 0-.582-.206-.582-.48 0-.26.194-.425.36-.48l.831.768a1.005 1.005 0 01-.61.192zm6.582-2.605h-1.344v3.085h1.344c.845 0 1.538-.7 1.538-1.55 0-.85-.693-1.535-1.538-1.535zm-.014 2.537h-.748v-1.988h.748c.54 0 .984.438.984.987 0 .548-.443 1-.984 1zm3.021-2.537h2.508v.535h-1.94v.74h1.608v.535H41.03v.74h1.94v.535h-2.508v-3.085zm6.333 0h.596l-1.248 3.085h-.637l-1.247-3.085h.596l.984 2.413.956-2.413zm1.981 0H51.3v.535h-1.94v.74h1.608v.535H49.36v.74h1.94v.535h-2.522v-3.085zm4.629 2.55h1.62v.535h-2.189v-3.085h.582v2.55h-.013zm4.282-2.645c-.901 0-1.65.726-1.65 1.63 0 .892.735 1.632 1.65 1.632.9 0 1.648-.726 1.648-1.631 0-.891-.748-1.631-1.648-1.631zm0 2.686c-.596 0-1.068-.48-1.068-1.055 0-.59.472-1.056 1.068-1.056.595 0 1.066.48 1.066 1.056 0 .59-.47 1.055-1.066 1.055zm4.628-2.59H60.75v3.084h.582v-.836h.998a1.14 1.14 0 001.15-1.124 1.16 1.16 0 00-1.164-1.125zm-.014 1.7h-.984v-1.152h.984c.333 0 .596.26.596.59a.602.602 0 01-.596.561zm5.515-1.7h.444v3.084h-.569v-2.029l-.97 1.33h-.332l-.97-1.33v2.029h-.568v-3.085h.457l1.26 1.741 1.248-1.74zm2.148 0h2.508v.534h-1.94v.74h1.608v.535h-1.608v.74h1.94v.535h-2.522v-3.085h.014zm6.319 0h.582v3.084h-.416l-1.843-2.125v2.125h-.582v-3.085h.416l1.843 2.112V34.82zm2.01 0h2.757v.534h-1.095v2.564h-.568v-2.564h-1.095v-.535z" fill="#fff"/><path d="M29.197 4.99l-7.289 3.112V3.907L31.054 0v3.112L38.343 0v4.195l-9.146 3.907V4.99z" fill="#EE3135"/></svg>