<?xml version="1.0" encoding="utf-8"?><svg viewBox="0 0 24 24" xmlns="http://www.w3.org/2000/svg" xmlns:xlink="http://www.w3.org/1999/xlink"><style>:root>svg{display:none}:root>svg:target{display:block}</style><svg fill="none" viewBox="0 0 24 24" id="icon-email" xmlns="http://www.w3.org/2000/svg"><path d="M17 9l-3.13 2.5c-1.03.82-2.72.82-3.75 0L7 9m10 11.5H7c-3 0-5-1.5-5-5v-7c0-3.5 2-5 5-5h10c3 0 5 1.5 5 5v7c0 3.5-2 5-5 5z" stroke="currentColor" stroke-linecap="round" stroke-linejoin="round"/></svg><svg fill="none" viewBox="0 0 18 18" id="icon-eye" xmlns="http://www.w3.org/2000/svg"><path d="M16.5 9c-1.31 2.682-4.592 5.25-7.5 5.25-2.908 0-6.19-2.568-7.5-5.25M16.5 9C15.19 6.318 11.909 3.75 9 3.75 6.092 3.75 2.81 6.317 1.5 9" stroke="currentColor" stroke-linecap="round" stroke-linejoin="round"/><path d="M11.25 9a2.25 2.25 0 11-4.5 0 2.25 2.25 0 014.5 0z" stroke="currentColor" stroke-linecap="round" stroke-linejoin="round"/></svg><svg fill="none" viewBox="0 0 18 18" id="icon-eye-slash" xmlns="http://www.w3.org/2000/svg"><path d="M3 3l4.409 4.409m0 0a2.25 2.25 0 103.182 3.182M7.409 7.409l3.182 3.182M15 15l-4.409-4.409M5.076 5.076C3.546 6.074 2.223 7.52 1.5 9c1.31 2.682 4.592 5.25 7.5 5.25 1.303 0 2.681-.516 3.924-1.326M7.32 4.01a5.886 5.886 0 011.68-.26c2.908 0 6.189 2.568 7.499 5.25-.414.848-1.025 1.684-1.758 2.43" stroke="currentColor" stroke-linecap="round" stroke-linejoin="round"/></svg><svg fill="none" viewBox="0 0 24 24" id="icon-password" xmlns="http://www.w3.org/2000/svg"><path d="M6 10V8c0-3.31 1-6 6-6s6 2.69 6 6v2m-3.5 6a2.5 2.5 0 11-5 0 2.5 2.5 0 015 0zm2.5 6H7c-4 0-5-1-5-5v-2c0-4 1-5 5-5h10c4 0 5 1 5 5v2c0 4-1 5-5 5z" stroke="currentColor" stroke-linecap="round" stroke-linejoin="round"/></svg><svg fill="none" viewBox="0 0 15 15" id="icon-search" xmlns="http://www.w3.org/2000/svg"><path fill-rule="evenodd" clip-rule="evenodd" d="M1 5.5C1 3.012 3.006 1 5.475 1S9.95 3.012 9.95 5.5a4.497 4.497 0 01-1.168 3.032.498.498 0 00-.294.295A4.446 4.446 0 015.475 10C3.005 10 1 7.988 1 5.5zm7.979 4.226A5.437 5.437 0 015.475 11C2.449 11 0 8.535 0 5.5S2.449 0 5.475 0s5.475 2.465 5.475 5.5a5.494 5.494 0 01-1.266 3.517l5.168 5.128a.5.5 0 01-.704.71l-5.17-5.129z" fill="currentColor"/></svg></svg>