<?xml version="1.0" encoding="utf-8"?><svg viewBox="0 0 24 24" xmlns="http://www.w3.org/2000/svg" xmlns:xlink="http://www.w3.org/1999/xlink"><style>:root>svg{display:none}:root>svg:target{display:block}</style><svg fill="none" viewBox="0 0 18 18" id="icon-basket" xmlns="http://www.w3.org/2000/svg"><path d="M3.09 2.62H2.5V2.5h.998l.511 2.597.08.403H15.306l-1.666 5H5.12l.086.574.3 2 .063.426h-.15L3.584 3.034 3.51 2.62h-.42z" stroke="currentColor"/></svg><svg fill="none" viewBox="0 0 10 6" id="icon-caret-select" xmlns="http://www.w3.org/2000/svg"><path d="M9 1L5 5 1 1" stroke="#161B25" stroke-linecap="round"/></svg><svg fill="none" viewBox="0 0 24 24" id="icon-email" xmlns="http://www.w3.org/2000/svg"><path d="M17 9l-3.13 2.5c-1.03.82-2.72.82-3.75 0L7 9m10 11.5H7c-3 0-5-1.5-5-5v-7c0-3.5 2-5 5-5h10c3 0 5 1.5 5 5v7c0 3.5-2 5-5 5z" stroke="currentColor" stroke-linecap="round" stroke-linejoin="round"/></svg><svg fill="none" viewBox="0 0 18 18" id="icon-eye" xmlns="http://www.w3.org/2000/svg"><path d="M16.5 9c-1.31 2.682-4.592 5.25-7.5 5.25-2.908 0-6.19-2.568-7.5-5.25M16.5 9C15.19 6.318 11.909 3.75 9 3.75 6.092 3.75 2.81 6.317 1.5 9" stroke="currentColor" stroke-linecap="round" stroke-linejoin="round"/><path d="M11.25 9a2.25 2.25 0 11-4.5 0 2.25 2.25 0 014.5 0z" stroke="currentColor" stroke-linecap="round" stroke-linejoin="round"/></svg><svg fill="none" viewBox="0 0 18 18" id="icon-eye-slash" xmlns="http://www.w3.org/2000/svg"><path d="M3 3l4.409 4.409m0 0a2.25 2.25 0 103.182 3.182M7.409 7.409l3.182 3.182M15 15l-4.409-4.409M5.076 5.076C3.546 6.074 2.223 7.52 1.5 9c1.31 2.682 4.592 5.25 7.5 5.25 1.303 0 2.681-.516 3.924-1.326M7.32 4.01a5.886 5.886 0 011.68-.26c2.908 0 6.189 2.568 7.499 5.25-.414.848-1.025 1.684-1.758 2.43" stroke="currentColor" stroke-linecap="round" stroke-linejoin="round"/></svg><svg fill="none" viewBox="0 0 18 18" id="icon-more" xmlns="http://www.w3.org/2000/svg"><path d="M7 5l4 4-4 4" stroke="currentColor"/></svg><svg fill="none" viewBox="0 0 7 12" id="icon-more-object" xmlns="http://www.w3.org/2000/svg"><path d="M1 11l5-5-5-5" stroke="currentColor" stroke-linecap="round"/></svg><svg fill="none" viewBox="0 0 18 18" id="icon-notification" xmlns="http://www.w3.org/2000/svg"><path d="M9 15.494a7.148 7.148 0 01-.415-.08c-.29-.066-.546-.147-.66-.22-.046-.03-.09-.061-.133-.094h2.417a1.769 1.769 0 01-.134.094c-.114.072-.37.154-.66.22a7.148 7.148 0 01-.415.08zm4.944-5.559v.206l.146.147 1.41 1.418v.794h-13v-.175 0-.619l1.41-1.418.146-.146V6.725c0-.95.524-2.006 1.436-2.837C6.397 3.062 7.642 2.5 9 2.5c1.359 0 2.603.562 3.508 1.388.912.831 1.437 1.887 1.437 2.837v3.21z" stroke="currentColor"/></svg><svg fill="none" viewBox="0 0 18 18" id="icon-object" xmlns="http://www.w3.org/2000/svg"><path d="M3.299 16l1.3-2.25h-.8V2h-1v11.75H2L3.299 16zM16 5H7v1h9V5zM7 8h9v1H7V8zM16 11H7v1h9v-1z" fill="currentColor"/></svg><svg fill="none" viewBox="0 0 24 24" id="icon-password" xmlns="http://www.w3.org/2000/svg"><path d="M6 10V8c0-3.31 1-6 6-6s6 2.69 6 6v2m-3.5 6a2.5 2.5 0 11-5 0 2.5 2.5 0 015 0zm2.5 6H7c-4 0-5-1-5-5v-2c0-4 1-5 5-5h10c4 0 5 1 5 5v2c0 4-1 5-5 5z" stroke="currentColor" stroke-linecap="round" stroke-linejoin="round"/></svg><svg fill="none" viewBox="0 0 15 15" id="icon-search" xmlns="http://www.w3.org/2000/svg"><path fill-rule="evenodd" clip-rule="evenodd" d="M1 5.5C1 3.012 3.006 1 5.475 1S9.95 3.012 9.95 5.5a4.497 4.497 0 01-1.168 3.032.498.498 0 00-.294.295A4.446 4.446 0 015.475 10C3.005 10 1 7.988 1 5.5zm7.979 4.226A5.437 5.437 0 015.475 11C2.449 11 0 8.535 0 5.5S2.449 0 5.475 0s5.475 2.465 5.475 5.5a5.494 5.494 0 01-1.266 3.517l5.168 5.128a.5.5 0 01-.704.71l-5.17-5.129z" fill="currentColor"/></svg><svg fill="none" viewBox="0 0 7 10" id="icon-sort" xmlns="http://www.w3.org/2000/svg"><path opacity=".5" d="M.833 3.333L3.333 1l2.5 2.333" stroke="#161B25" stroke-linecap="round"/><path d="M.833 6.25l2.5 2.334 2.5-2.333" stroke="#161B25" stroke-linecap="round"/></svg><svg fill="none" viewBox="0 0 18 18" id="icon-time" xmlns="http://www.w3.org/2000/svg"><path fill-rule="evenodd" clip-rule="evenodd" d="M9 16A7 7 0 109 2a7 7 0 000 14zm0-1A6 6 0 109 3a6 6 0 000 12z" fill="currentColor"/><path d="M9.5 5h-1v5h3V9h-2V5z" fill="currentColor"/></svg><svg fill="none" viewBox="0 0 18 18" id="icon-unloading" xmlns="http://www.w3.org/2000/svg"><path d="M6 4H2v11h14V4h-4v1h3v9H3V5h3V4z" fill="currentColor"/><path d="M10.3 3.25L9 1 7.701 3.25h.8V9h1V3.25h.798z" fill="currentColor"/></svg><svg fill="none" viewBox="0 0 18 18" id="icon-village" xmlns="http://www.w3.org/2000/svg"><path fill-rule="evenodd" clip-rule="evenodd" d="M15 9h-1v7H4V9H3l6-7 6 7zm-2-.797L9 3.537 5 8.203V15h2.05v-4.186C7.05 9.671 8.075 9 9 9c.926 0 1.95.671 1.95 1.813L10.948 15H13V8.203zM9.949 15v-4.186c0-.45-.424-.813-.949-.813-.525 0-.95.364-.95.813V15l1 .001h.899z" fill="currentColor"/><path d="M2 12h1v4H2v-4zM16 12h-1v4h1v-4z" fill="currentColor"/></svg><svg fill="none" viewBox="0 0 18 18" id="icon-zagorod" xmlns="http://www.w3.org/2000/svg"><path d="M5.375 8.5H3.867l5.125-5.74 4.92 5.74h-2.509l.565.79 3.06 4.285H9.375V15.5h-.75v-1.925H2.933l2.858-4.298.517-.777h-.933z" stroke="currentColor"/></svg></svg>